<svg version="1" xmlns="http://www.w3.org/2000/svg" width="400" height="400" viewBox="0 0 300.000000 300.000000"><path d="M63.9 44.4c-13.3 4.7-21 19.2-17.4 32.5.7 2.5 5.4 12.9 10.5 23.1 5.1 10.2 16.4 33.1 25.2 51 18.9 38.7 20.1 41 20.9 41 .4 0 2.6-3 5-6.8 2.4-3.7 4.6-6.9 4.9-7.2.3-.3 5.2-7.4 10.7-15.8l10.2-15.4-22.6-33.6c-12.4-18.6-23.2-34.4-24-35.4-.8-.9-1.1-1.8-.6-2.1.5-.3 7.9-.5 16.6-.5l15.7.1 10.6 16.6c18.6 28.8 19.5 30.1 20.2 30.1.4-.1 4.1-5.3 8.2-11.8 4.1-6.4 10.8-16.9 15-23.3l7.6-11.6 16.2-.1c8.9 0 16.2.3 16.2.6 0 .4-1.7 3.2-3.8 6.2-18.8 27.1-43.3 64.3-43 65.3.2.7 7 11.2 15.2 23.5l15 22.3 12.7-25.8c6.9-14.2 19.7-40.1 28.3-57.6 17.1-34.7 18.1-37.8 15.2-47-2.3-7.5-7.2-13.3-14.2-16.7l-6.2-3h-82.3c-64.7.1-83.2.4-86 1.4z"/><path d="M146.6 177.7c-1.3 2.1-8.5 13.4-16 25.1-7.5 11.7-13.6 21.8-13.6 22.3 0 2.4 10.4 21.4 13.2 24.1 10.5 10.2 28.6 10.2 39 0 1.5-1.5 5.2-7.6 8.2-13.5l5.4-10.8-8.8-13.7c-4.9-7.5-12.1-19-16.2-25.4-4-6.5-7.6-11.8-8-11.8-.4 0-1.8 1.7-3.2 3.7z"/></svg>